<?xml version="1.0" encoding="UTF-8"?>
<svg xmlns="http://www.w3.org/2000/svg" xmlns:xlink="http://www.w3.org/1999/xlink" version="1.1" viewBox="0 0 250 50">
  <!-- Generator: Adobe Illustrator 29.8.1, SVG Export Plug-In . SVG Version: 2.1.1 Build 2)  -->
  <defs>
    <style>
      .st0 {
        fill: none;
      }

      .st1 {
        fill: url(#linear-gradient2);
      }

      .st2 {
        fill: url(#linear-gradient1);
      }

      .st3 {
        fill: url(#linear-gradient3);
      }

      .st4 {
        fill: url(#linear-gradient4);
      }

      .st5 {
        fill: #deebb9;
      }

      .st6 {
        fill: #343335;
      }

      .st7 {
        filter: url(#professionalGlow2);
      }

      .st8 {
        filter: url(#professionalGlow3);
      }

      .st9 {
        filter: url(#professionalGlow1);
      }

      .st10 {
        fill: url(#linear-gradient);
      }

      .st11 {
        fill: #1b1c19;
      }

      .st12 {
        fill: #22d3ee;
      }

      .st13 {
        fill: #06b6d4;
      }

      .st14, .st15, .st16 {
        fill: #fff;
      }

      .st17 {
        filter: url(#professionalGlow);
      }

      .st15 {
        filter: url(#textShadow);
        font-family: InterUI-Bold, 'Inter UI';
        font-size: 17px;
        font-weight: 700;
        letter-spacing: .12em;
      }

      .st18 {
        opacity: .4;
      }

      .st19 {
        fill: #94a3b8;
        font-family: InterUI-Medium, 'Inter UI';
        font-size: 8px;
        font-weight: 500;
        letter-spacing: .12em;
        opacity: .8;
      }

      .st19, .st20, .st21, .st16 {
        isolation: isolate;
      }

      .st22 {
        fill: #2dd4bf;
      }

      .st20 {
        fill: url(#linear-gradient5);
        opacity: .7;
      }

      .st21 {
        fill: url(#linear-gradient6);
        opacity: .5;
      }

      .st23 {
        font-family: Virgo01, 'Virgo 01';
        font-size: 12px;
      }

      .st24 {
        display: none;
      }

      .st25 {
        fill: #c0d87b;
      }

      .st16 {
        opacity: .9;
      }
    </style>
    <linearGradient id="linear-gradient" x1="43.42" y1="29.56" x2="40.51" y2="31.61" gradientUnits="userSpaceOnUse">
      <stop offset="0" stop-color="#373537"/>
      <stop offset="1" stop-color="#101010"/>
    </linearGradient>
    <symbol id="Sunflower" viewBox="0 0 49.92 51.56">
      <g>
        <rect class="st0" width="49.92" height="51.56"/>
        <g id="Generative_Object">
          <path class="st14" d="M17.7,42.3l.43-.28c-.06.15-.28.28-.43.28Z"/>
          <path class="st14" d="M37.75,18.64c0-.06.03-.19-.04-.21.04-.1.07-.2.11-.3.03,0,.1.48-.06.52Z"/>
          <g>
            <g>
              <path class="st14" d="M29.59,19.02c.06.37.23.76.24,1.16.4-.06.92-.27,1.33-.21.24.03.65.43.69.43.05,0,.61-.49.75-.52,0,.14.13.97.21,1.05.12.11.64.07.82.11.26.05,1.15.2,1.33.3.12.06.04.38.09.54.25.75.75.99,1.5,1.05.06.18.21.32.3.47.05.08.01.25.15.39.21.2.98.28,1.14.56.12.21.16.66.34.97.11.19.57.61.6.69.12.29-.03.89.04,1.07s1.22.2,1.42.19c-.21.14.05.15,0,.34-1.07.28-.73,1.74-.17,2.36-.6.4-.67.79-.47,1.48.08.28.37.58.43.84.17.7-.58.96-.6,1.1,0,.04.48.47.47.6-.02.22-.95.82-1.07,1.01-.06.09-.06.16,0,.26-.11.03-.48.16-.52.26-.04.11.04.61,0,.67-.03.04-.66-.05-.82.39-.11.31,0,.62.13.9l-.58-.02c-.06.09-.07.15-.06.26-.16-.02-.13.04-.13.17-.68.04-.19.12-.47.43-.12.14-.71.32-.82.6-.77-.08-1.76.34-1.59,1.27.03.18.25.32.21.49-.9-.22-1.77.16-2.53.13-.69-.03-1.27-.74-1.63.43-.55-.36-1.33-.26-1.85.13-.2-.25-.64-.43-.94-.26l-1.22.13c-.3-.04-.65-.43-.69-.43-.04,0-.72.44-.75.47-.07-.17-.11-.89-.21-1.01-.08-.08-.77-.12-.94-.15-.53-.1-1.05-.17-1.55-.39-.05-.44-.66-1.03-1.12-1.03-.11-.77-.79-1.17-1.5-.82.01-.11-.08-.15-.17-.13.03-.07.23-.51.21-.54-.02-.04-.2-.04-.24-.06-.08-.05-.06-.13-.06-.13-.02-.39-.15-.8-.34-1.14-.1-.16-.59-.64-.6-.69-.07-.24.05-.8,0-1.07-.08-.2-1.13-.2-1.33-.19.35-.42.2-.89.26-1.35.04-.29.3-.69.13-.92.17,0,.11-.31-.09-.26.03-.32.15-1.59.13-1.83s-.42-.74-.39-1.03c.02-.2.65-.72.64-.77,0-.03-.47-.46-.47-.52-.01-.15,1.07-.99,1.25-1.14.14-.12.37-.2.47-.37.28-.45.07-1.3-.47-1.44-.06-.06-.21-.27-.26-.3h.04c.6.42,1.51.53,1.57-.39l.45.19c.12-.26,0-.51-.02-.75-.01-.13-.05-.14.11-.13.41.03,1.03-.35,1.25-.69,1.11.09,2.04-.62,1.33-1.72.87.22,1.8-.17,2.58-.13.56.03,1.37.68,1.59-.39.81.45,2.13.03,2.23-.99h.26Z"/>
              <path class="st14" d="M27.96,43.71c.1.11.41.26.49.47l.06-.39c.06.5.68,2.54.9,3.01-.52.28-1.42.17-2,.04-.52-.11-1.2-.38-1.44-.86-.31-.64-.31-1.61-.04-2.25l.09-.04c.34.76.95,1.3,1.78,1.44l.15-1.42Z"/>
            </g>
            <path class="st14" d="M13.32,33.24s-.08-.03,0-.04v.04Z"/>
            <path class="st14" d="M32.47,41.27h-.04v-.04s.03.03.04.04Z"/>
            <path class="st14" d="M20.1,20.53s-.04-.04-.04-.04l.04-.04s0,.06,0,.09Z"/>
            <polygon class="st14" points="23.77 43.46 23.8 43.48 23.77 43.54 23.75 43.52 23.77 43.46"/>
            <path class="st14" d="M19.33,37.79s.04-.04.04-.04c0,0-.03.03-.04.04Z"/>
            <polygon class="st14" points="17.7 42.3 17.68 42.34 17.66 42.32 17.68 42.3 17.7 42.3"/>
            <path class="st14" d="M24.96,19.92s-.04-.08-.04-.09h.04s.12.04,0,.09Z"/>
            <g>
              <path d="M18.21,24c.05.03.2.24.26.3-.79-.21-1.78.41-2.49-.19.65,1.12.88,2.22,2.49,2-.17.15-1.26.98-1.25,1.14,0,.05.47.48.47.52,0,.05-.62.58-.64.77-.03.29.37.78.39,1.03s-.1,1.5-.13,1.83c0,.04-.03.04-.04.09-.04-.04-.12-.04-.13-.04-1.19-.75-2.84.42-3.67-.17-.21-.15-.56-.82-.45-1.05.05-.11,1.25-.39,1.44-.45.03-.04-.61-.43-.54-.62l1.25-.34c-1.02-.13-2.12-.39-2.58-1.42l2-.02c.1-.04-.07-.7.09-.77.14-.06,1.4-.04,1.4-.11-1.07-.47-.92-1.22-1.2-2.1-.04-.13-.6-1.36-.54-1.4,1,.52,3.01.47,3.89,1.03Z"/>
              <path d="M40.54,27.27c-.2,0-1.34,0-1.42-.19s.07-.79-.04-1.07c-.03-.08-.49-.5-.6-.69-.18-.31-.22-.75-.34-.97.82.13,1.3.05,1.67-.73.09.14.12-.08.13-.09.16-.17.3-.34.45-.52.51.78.8,1.74.34,2.62,1.21-.34,2.56-.64,3.13-1.89,1.1,2.35-1.35,3.49-3.33,3.52Z"/>
              <path d="M33.33,18.46c-.05.09,0,.12-.04.19-.25.42-.65.62-.69,1.22-.14.03-.71.51-.75.52-.04,0-.44-.4-.69-.43-.41-.05-.93.15-1.33.21,0-.39-.17-.79-.24-1.16-.17-1.03-.03-1.86,0-2.9.84-.02,1.47.72,1.87,1.4.4-.74.24-1.6,0-2.36,1.01.81,1.76,2,1.87,3.31Z"/>
              <path d="M29.34,19.02c-.1,1.02-1.43,1.43-2.23.99.11-.54-.2-1-.26-1.5-.16-1.33.99-3.1.92-4.51.52.66.55,1.53.79,2.3.22.71.84,2.03.77,2.73Z"/>
              <path d="M24.91,19.84s.04.08.04.09c.17.17.36.33.56.47-.77-.04-1.7.35-2.58.13-.21-.05-.38-.25-.56-.3-.65-1.11-.88-2.37-1.83-3.31.78.42,1.9.56,2.62,1.03.62.4,1.2,1.33,1.74,1.89Z"/>
              <path d="M20.06,20.48s0,.05.04.04c.17.93.43,1.63,1.5,1.72-.22.34-.84.72-1.25.69-.25-.02-.78-.5-1.12-.52-1.44-1.1-1.38-3.19-1.2-4.83.5,1.11.99,2.2,2.02,2.9Z"/>
              <path class="st11" d="M26.84,18.51c.06.5.37.96.26,1.5-.21,1.06-1.03.42-1.59.39-.19-.15-.39-.3-.56-.47.12-.05,0-.08,0-.09-.39-.94-.46-2.01-.24-3.01,1,.17,1.59.88,2.13,1.67Z"/>
              <path class="st5" d="M37.75,18.64c0,.59-.03,1.21-.04,1.8,0,.11.04.16.04.17-.01.53-.12,2.25-.79,2.36-.16.03-.28-.03-.41-.04-.76-.06-1.26-.3-1.5-1.05-.05-.15.03-.47-.09-.54.09-.85,1.17-.7,1.78-1.03.1-.05.1-.17.11-.17.02-.02.06.05.06.04.57-.46.56-1.14.79-1.76.07.02.04.15.04.21Z"/>
              <path d="M36.85,20.14s0,.12-.11.17c-.61.33-1.69.18-1.78,1.03-.18-.1-1.07-.25-1.33-.3.29-.2.31-1,.3-1.33,1.01-.51,2.16-1.01,2.34-2.28.35.86.57,1.78.58,2.71Z"/>
              <path d="M42.48,29.37c-.52.07-1.73.35-2.1.6-.56-.62-.89-2.08.17-2.36.57-.15,1.32-.04,1.87-.47.3.7.48,1.55.06,2.23Z"/>
              <path class="st25" d="M22.38,20.23c.18.05.35.25.56.3.7,1.1-.22,1.81-1.33,1.72s-1.33-.79-1.5-1.72c0-.03,0-.06,0-.09-.02-.12-.17-.81-.11-.86.56.82,1.6.42,2.38.64Z"/>
              <path class="st6" d="M39.86,23.53s-.03.06-.04.09c-.37.78-.85.86-1.67.73-.16-.28-.93-.36-1.14-.56-.14-.13-.1-.31-.15-.39.99.29.9-.37,1.25-.77.11-.13.66-.37.84-.52.59-.47.84-.94,1.03-1.67.09,1.01.28,2.13-.11,3.09Z"/>
              <path class="st11" d="M19.24,22.42c.34.01.87.49,1.12.52-.16,0-.12,0-.11.13.03.24.14.49.02.75l-.45-.19c-.06.92-.96.81-1.57.39-.33-.23-1.97-1.94-2.02-2.25-.02-.11,0-.24.04-.34.06-.05,1,.89,1.27.97.48.13,1.19,0,1.7.04Z"/>
              <path class="st11" d="M33.93,19.71c0,.33,0,1.13-.3,1.33-.18-.03-.7,0-.82-.11-.09-.09-.22-.92-.21-1.05.04-.6.43-.81.69-1.22.05-.08,0-.11.04-.19,0,0,.04.11.09.02.11-.2.13-.5.26-.69-.02.6.24,1.33.26,1.91Z"/>
              <path d="M38.1,22.63c-.35.41-.26,1.06-1.25.77-.09-.16-.24-.3-.3-.47.13,0,.25.07.41.04.68-.11.78-1.83.79-2.36.03-.06.06-.11.09-.17.03-.07.07-.32.17-.28l.09,2.47Z"/>
              <path class="st14" d="M37.84,20.44c-.03.06-.06.11-.09.17,0,0-.05-.06-.04-.17h.13Z"/>
              <path class="st14" d="M39.94,23.53s-.04.23-.13.09c.01-.03.03-.05.04-.09h.09Z"/>
              <path class="st25" d="M18.47,24.3c.54.14.75.99.47,1.44-.1.17-.33.24-.47.37-1.61.22-1.84-.88-2.49-2,.72.6,1.7-.01,2.49.19Z"/>
            </g>
            <g>
              <path d="M40.8,37.06s-.09.04-.09.06c.01.12.17.84.11.88-.27-.3-.65-.64-1.1-.54.34.88.54,1.99,1.59,2.28-.75.32-1.62.03-2.23-.45-.01,0-.05-.06-.09-.09-.56-.48-.58-.85-1.35-1.25-.16-.08-.28.04-.37-.17,0-.02,0-.06,0-.09,0-.1,0-.17.06-.26l.58.02c-.13-.28-.24-.59-.13-.9.16-.44.79-.35.82-.39.04-.05-.04-.56,0-.67.58.11.98-.3,1.57.09.45.3.46.92.54,1.4,0,.04.08,0,.09.06Z"/>
              <path d="M39.13,35c.12-.19,1.05-.78,1.07-1.01.01-.13-.48-.56-.47-.6.02-.13.77-.4.6-1.1.08.04.2-.08.21-.09,1.52-.08,3.52.13,4.34,1.61-.24.06-1.95,0-2.04.06-.07.05.03.66-.04.73l-3.67.39Z"/>
              <path class="st10" d="M40.54,32.21s-.14.13-.21.09c-.06-.26-.35-.55-.43-.84-.2-.69-.13-1.09.47-1.48.38-.25,1.59-.53,2.1-.6.56-.07,1.11-.09,1.67-.06.02.68-.61,2.09-1.27,2.34-.69.26-1.84-.11-2.34.56Z"/>
              <path class="st5" d="M17.14,31.48s.1.07.13.09c.03.02.12.08.13.09.17.24-.09.64-.13.92-.06.46.09.93-.26,1.35-.27,0-1.03.08-1.29.13,0-.06-.04-.04-.09-.04-.46-.02-1.98-.49-2.32-.77v-.04c.04-.05.71-.09.84-.13,1.18-.37,1.49-2.13,2.98-1.59Z"/>
              <path d="M39.21,40.11c.21,1.18.46,2.26.15,3.48-.46-1.04-.98-2.29-2-2.88-.16-.83-.55-1.71-1.5-1.8.1-.28.69-.46.82-.6.22.51.66.86,1.03,1.27.47.52.58,1.13,1.5.54Z"/>
              <path class="st6" d="M39,39.21c-.03.09.07.11.09.13.28.4.07.47.13.77-.92.59-1.04-.02-1.5-.54-.37-.41-.81-.76-1.03-1.27.28-.31-.21-.39.47-.43.08,0,.14.03.13-.09.09.21.21.09.37.17.77.4.79.76,1.35,1.25Z"/>
              <path d="M40.8,37.06c0-.07-.08-.03-.09-.06-.08-.47-.08-1.1-.54-1.4-.58-.38-.98.02-1.57-.09.03-.09.41-.23.52-.26,1.43-.38,1.59.55,2.64.77.45.09.9,0,1.35.02-.44,1.37-1.1,1.17-2.32,1.01Z"/>
              <path class="st14" d="M17.27,31.48s0,.06,0,.09c-.03-.02-.12-.08-.13-.09v-.04s.09,0,.13.04Z"/>
              <path class="st14" d="M39.08,39.29v.04s-.12-.04-.09-.13c.04.03.07.08.09.09Z"/>
              <g>
                <path d="M17.01,33.92c.2,0,1.25,0,1.33.19.05.28-.07.84,0,1.07.01.04.51.52.6.69.2.34.33.74.34,1.14-.05-.02-.04.09-.06.09-.79-.22-1.08-.19-1.65.43-.07.08-.11.13-.17.21-.05.07-.29.48-.32.47-.51-.8-.86-1.71-.39-2.62-.97.3-2.04.44-2.73,1.27-.16.2-.24.48-.43.64-.71-1.78.38-3.06,2.1-3.41.1-.02.08-.04.09-.04.26-.05,1.02-.12,1.29-.13Z"/>
                <path d="M27.53,41.1c-.95.56-.05,2.05.43,2.62l-.15,1.42c-.83-.14-1.44-.68-1.78-1.44l-.09.04c-.27.65-.27,1.61.04,2.25-1.08-.73-1.75-2.02-1.89-3.31.41-.24.62-1.24.77-1.42.03-.03.71-.48.75-.47.04,0,.38.39.69.43l1.22-.13Z"/>
                <path d="M30.32,41.22c-.02.46.26,1,.3,1.42.13,1.43-1.05,3.13-.9,4.62-.14-.1-.23-.3-.3-.45-.22-.46-.84-2.51-.9-3.01-.05-.42.13-.5.17-.84.06-.43.07-1.25-.21-1.61.51-.39,1.3-.49,1.85-.13Z"/>
                <path d="M34.49,40.67c.12.03.48.22.56.3.43.43.71,1.64,1.03,2.21.23.42.58.77.88,1.14-.83-.44-1.98-.6-2.75-1.12-.64-.43-1.18-1.36-1.74-1.93-.01-.02-.03-.03-.04-.04-.15-.15-.31-.29-.47-.43.76.03,1.63-.34,2.53-.13Z"/>
                <path class="st6" d="M31.96,40.79c.17.14.32.28.47.43v.04c.48.91.48,2.1.28,3.09-.99-.19-1.61-.87-2.08-1.72-.04-.42-.32-.95-.3-1.42.36-1.17.94-.46,1.63-.43Z"/>
                <path class="st25" d="M37.37,40.71c.02.12.13.86.06.9-.57-.75-1.55-.56-2.38-.64-.08-.08-.44-.27-.56-.3.03-.18-.18-.32-.21-.49-.17-.93.82-1.34,1.59-1.27.95.1,1.35.98,1.5,1.8Z"/>
                <path d="M23.71,40.11c-.17.45-.19.94-.17,1.42-1.08.46-2.14,1-2.34,2.28l-.58-2.28c.89-.27,1.66-.73,1.55-1.8.5.21,1.02.29,1.55.39Z"/>
                <path class="st6" d="M19.29,37.02s-.02.08.06.13c.03.02.22.03.24.06.01.03-.18.47-.21.54,0,0-.05,0-.04.04-.05.06-.05.22-.09.3,0,0-.08.04-.04.13-.13.21-.17.5-.3.73-.62,1.09-1.23.93-2.38.86.71-.52.68-1.35.97-2.06.02-.05.12-.11.09-.21.57-.62.86-.65,1.65-.43.02,0,.01-.11.06-.09Z"/>
                <path class="st25" d="M22.16,39.72c.12,1.07-.66,1.53-1.55,1.8-.13.04-.79.23-.82.15.05-.38.15-.76.21-1.14.01-.08,0-.16,0-.17.12-.57.25-1.68,1.03-1.67.45,0,1.07.59,1.12,1.03Z"/>
                <path d="M21.05,38.69c-.78,0-.91,1.1-1.03,1.67-.02.04-.06.09-.09.13-.47.63-1,1.15-1.76,1.44.88-.64,1.62-2.05.73-2.98.13-.23.17-.52.3-.73,0-.02.08-.12.09-.13.02-.03.23-.2.26-.21.71-.35,1.4.05,1.5.82Z"/>
                <path class="st11" d="M24.87,41.27c-.15.18-.37,1.18-.77,1.42l-.34.67c.04-.61-.19-1.23-.21-1.83-.02-.48,0-.97.17-1.42.18.03.87.07.94.15.1.11.15.84.21,1.01Z"/>
                <path class="st14" d="M17.48,37.75h-.09c.06-.08.1-.14.17-.21.04.1-.06.16-.09.21Z"/>
                <path class="st14" d="M20.02,40.54l-.09-.04s.06-.08.09-.13c0,0,.01.09,0,.17Z"/>
                <path class="st14" d="M15.72,34.05s.01.02-.09.04v-.09s.09-.02.09.04Z"/>
                <path class="st25" d="M28.48,41.35c.28.36.27,1.18.21,1.61-.04.34-.23.42-.17.84l-.06.39c-.08-.21-.4-.36-.49-.47-.48-.57-1.38-2.06-.43-2.62.3-.18.75,0,.94.26Z"/>
                <path class="st14" d="M19.29,38.09s-.08.11-.09.13c-.04-.08.04-.12.04-.13h.04Z"/>
              </g>
            </g>
          </g>
        </g>
      </g>
    </symbol>
    <filter id="professionalGlow">
      <feGaussianBlur result="coloredBlur" stdDeviation="1"/>
      <feMerge>
        <feMergeNode in="coloredBlur"/>
        <feMergeNode in="SourceGraphic"/>
      </feMerge>
    </filter>
    <linearGradient id="linear-gradient1" x1="-163.5" y1="415.48" x2="-162.5" y2="414.48" gradientTransform="translate(3285 5404.57) scale(20 -13)" gradientUnits="userSpaceOnUse">
      <stop offset="0" stop-color="#2dd4bf"/>
      <stop offset=".5" stop-color="#22d3ee"/>
      <stop offset="1" stop-color="#06b6d4"/>
    </linearGradient>
    <filter id="professionalGlow1" data-name="professionalGlow">
      <feGaussianBlur result="coloredBlur" stdDeviation="1"/>
      <feMerge>
        <feMergeNode in="coloredBlur"/>
        <feMergeNode in="SourceGraphic"/>
      </feMerge>
    </filter>
    <linearGradient id="linear-gradient2" x1="-158.87" y1="426.09" x2="-157.87" y2="425.09" gradientTransform="translate(2101 8538.8) scale(13 -20)" gradientUnits="userSpaceOnUse">
      <stop offset="0" stop-color="#2dd4bf"/>
      <stop offset=".5" stop-color="#22d3ee"/>
      <stop offset="1" stop-color="#06b6d4"/>
    </linearGradient>
    <filter id="professionalGlow2" data-name="professionalGlow">
      <feGaussianBlur result="coloredBlur" stdDeviation="1"/>
      <feMerge>
        <feMergeNode in="coloredBlur"/>
        <feMergeNode in="SourceGraphic"/>
      </feMerge>
    </filter>
    <linearGradient id="linear-gradient3" x1="-163.3" y1="415.68" x2="-162.3" y2="414.68" gradientTransform="translate(3285 5437.57) scale(20 -13)" gradientUnits="userSpaceOnUse">
      <stop offset="0" stop-color="#2dd4bf"/>
      <stop offset=".5" stop-color="#22d3ee"/>
      <stop offset="1" stop-color="#06b6d4"/>
    </linearGradient>
    <filter id="professionalGlow3" data-name="professionalGlow">
      <feGaussianBlur result="coloredBlur" stdDeviation="1"/>
      <feMerge>
        <feMergeNode in="coloredBlur"/>
        <feMergeNode in="SourceGraphic"/>
      </feMerge>
    </filter>
    <linearGradient id="linear-gradient4" x1="-158.67" y1="426.29" x2="-157.67" y2="425.29" gradientTransform="translate(2068 8538.8) scale(13 -20)" gradientUnits="userSpaceOnUse">
      <stop offset="0" stop-color="#2dd4bf"/>
      <stop offset=".5" stop-color="#22d3ee"/>
      <stop offset="1" stop-color="#06b6d4"/>
    </linearGradient>
    <linearGradient id="linear-gradient5" x1="-162.97" y1="426.34" x2="-161.97" y2="425.34" gradientTransform="translate(3106.29 8624.56) scale(18.95 -20.2)" gradientUnits="userSpaceOnUse">
      <stop offset="0" stop-color="#f0abfc"/>
      <stop offset=".25" stop-color="#e879f9"/>
      <stop offset=".5" stop-color="#c084fc"/>
      <stop offset=".75" stop-color="#a855f7"/>
      <stop offset="1" stop-color="#22d3ee"/>
    </linearGradient>
    <linearGradient id="linear-gradient6" x1="-153.84" y1="408.61" x2="-152.84" y2="407.61" gradientTransform="translate(1475.16 4343.5) scale(9.44 -10.58)" gradientUnits="userSpaceOnUse">
      <stop offset="0" stop-color="#f0abfc"/>
      <stop offset=".25" stop-color="#e879f9"/>
      <stop offset=".5" stop-color="#c084fc"/>
      <stop offset=".75" stop-color="#a855f7"/>
      <stop offset="1" stop-color="#22d3ee"/>
    </linearGradient>
    <filter id="textShadow">
      <feDropShadow dx="0" dy="1" flood-color="#000000" flood-opacity="0.3" stdDeviation="1"/>
    </filter>
  </defs>
  <g id="Layer_2" class="st24">
    <rect width="250" height="50"/>
  </g>
  <g id="Layer_1">
    <g>
      <g class="st17">
        <path class="st2" d="M27,2c5,0,10,6,10,13-5-3-10-5-10,0,0-5-5-3-10,0,0-7,5-13,10-13Z"/>
      </g>
      <g class="st9">
        <path class="st1" d="M50,25c0-5-6-10-13-10,3,5,5,10,0,10,5,0,3,5,0,10,7,0,13-5,13-10Z"/>
      </g>
      <g class="st7">
        <path class="st3" d="M27,48c-5,0-10-6-10-13,5,3,10,5,10,0,0,5,5,3,10,0,0,7-5,13-10,13Z"/>
      </g>
      <g class="st8">
        <path class="st4" d="M4,25c0,5,6,10,13,10-3-5-5-10,0-10-5,0-3-5,0-10-7,0-13,5-13,10Z"/>
      </g>
      <path class="st20" d="M27,12c7,3,13,10,10,16-3,7-10,4-17,0-3-6,0-13,7-16Z"/>
      <path class="st21" d="M27,18c4,2,7,6,5,9s-5,1-8,0c-2-3,0-7,3-9Z"/>
      <ellipse class="st16" cx="27" cy="25" rx="1.5" ry="2.5" transform="translate(-9.77 26.41) rotate(-45)"/>
    </g>
    <g>
      <text class="st15" transform="translate(59 24) scale(1.1 1)"><tspan x="0" y="0">AI-STUDIO44</tspan></text>
      <text class="st19" transform="translate(59 39)"><tspan x="0" y="0">PROFESSIONAL AI SOLUTIONS</tspan></text>
    </g>
    <g class="st18">
      <rect class="st22" x="235" y="12" width="2" height="8"/>
      <rect class="st12" x="240" y="8" width="2" height="12"/>
      <rect class="st13" x="245" y="15" width="2" height="6"/>
    </g>
    <use width="49.92" height="51.56" transform="translate(-3.29 -6.45) scale(1.06)" xlink:href="#Sunflower"/>
    <text class="st23" transform="translate(18.98 28.88)"><tspan x="0" y="0">44</tspan></text>
  </g>
</svg>